<svg xmlns="http://www.w3.org/2000/svg" width="122.417" height="113.036" viewBox="0 0 122.417 113.036">
  <g id="Group_575" data-name="Group 575" transform="translate(-238 -588)">
    <rect id="Rectangle_168" data-name="Rectangle 168" width="112.946" height="80.861" transform="translate(245.384 594.552)" fill="#7689d6"/>
    <rect id="Rectangle_169" data-name="Rectangle 169" width="112.946" height="11.075" transform="translate(245.384 594.552)" fill="#4b839e"/>
    <rect id="Rectangle_170" data-name="Rectangle 170" width="112.946" height="69.786" transform="translate(238 594.552)" fill="#4b839e"/>
    <rect id="Rectangle_171" data-name="Rectangle 171" width="112.946" height="69.786" transform="translate(238 605.628)" fill="#8a9edd"/>
    <rect id="Rectangle_172" data-name="Rectangle 172" width="12.665" height="12.665" transform="translate(245.384 613.011)" fill="#d4e8ff"/>
    <rect id="Rectangle_173" data-name="Rectangle 173" width="12.665" height="12.665" transform="translate(259.637 613.011)" fill="#d4e8ff"/>
    <rect id="Rectangle_174" data-name="Rectangle 174" width="12.665" height="12.665" transform="translate(273.891 613.011)" fill="#d4e8ff"/>
    <rect id="Rectangle_175" data-name="Rectangle 175" width="12.665" height="12.665" transform="translate(288.136 613.011)" fill="#d4e8ff"/>
    <rect id="Rectangle_176" data-name="Rectangle 176" width="12.665" height="12.665" transform="translate(302.39 613.011)" fill="#d4e8ff"/>
    <rect id="Rectangle_177" data-name="Rectangle 177" width="12.665" height="12.665" transform="translate(316.644 613.011)" fill="#d4e8ff"/>
    <rect id="Rectangle_178" data-name="Rectangle 178" width="12.665" height="12.665" transform="translate(330.898 613.011)" fill="#d4e8ff"/>
    <rect id="Rectangle_179" data-name="Rectangle 179" width="12.665" height="12.665" transform="translate(245.384 627.135)" fill="#d4e8ff"/>
    <rect id="Rectangle_180" data-name="Rectangle 180" width="12.665" height="12.665" transform="translate(259.637 627.135)" fill="#d4e8ff"/>
    <rect id="Rectangle_181" data-name="Rectangle 181" width="12.665" height="12.665" transform="translate(273.891 627.135)" fill="#d4e8ff"/>
    <rect id="Rectangle_182" data-name="Rectangle 182" width="12.665" height="12.665" transform="translate(288.136 627.135)" fill="#d4e8ff"/>
    <rect id="Rectangle_183" data-name="Rectangle 183" width="12.665" height="12.665" transform="translate(302.39 627.135)" fill="#d4e8ff"/>
    <rect id="Rectangle_184" data-name="Rectangle 184" width="12.665" height="12.665" transform="translate(316.644 627.135)" fill="#d4e8ff"/>
    <rect id="Rectangle_185" data-name="Rectangle 185" width="12.665" height="12.665" transform="translate(330.898 627.135)" fill="#d4e8ff"/>
    <rect id="Rectangle_186" data-name="Rectangle 186" width="12.665" height="12.665" transform="translate(245.384 641.25)" fill="#d4e8ff"/>
    <rect id="Rectangle_187" data-name="Rectangle 187" width="12.665" height="12.665" transform="translate(259.637 641.25)" fill="#d4e8ff"/>
    <rect id="Rectangle_188" data-name="Rectangle 188" width="12.665" height="12.665" transform="translate(273.891 641.25)" fill="#d4e8ff"/>
    <rect id="Rectangle_189" data-name="Rectangle 189" width="12.665" height="12.665" transform="translate(288.136 641.25)" fill="#d4e8ff"/>
    <rect id="Rectangle_190" data-name="Rectangle 190" width="12.665" height="12.665" transform="translate(302.39 641.25)" fill="#d4e8ff"/>
    <rect id="Rectangle_191" data-name="Rectangle 191" width="12.665" height="12.665" transform="translate(316.644 641.25)" fill="#d4e8ff"/>
    <rect id="Rectangle_192" data-name="Rectangle 192" width="12.665" height="12.665" transform="translate(330.898 641.25)" fill="#d4e8ff"/>
    <rect id="Rectangle_193" data-name="Rectangle 193" width="12.665" height="12.665" transform="translate(245.384 655.365)" fill="#d4e8ff"/>
    <rect id="Rectangle_194" data-name="Rectangle 194" width="12.665" height="12.665" transform="translate(259.637 655.365)" fill="#d4e8ff"/>
    <rect id="Rectangle_195" data-name="Rectangle 195" width="12.665" height="12.665" transform="translate(273.891 655.365)" fill="#d4e8ff"/>
    <rect id="Rectangle_196" data-name="Rectangle 196" width="12.665" height="12.665" transform="translate(288.136 655.365)" fill="#d4e8ff"/>
    <rect id="Rectangle_197" data-name="Rectangle 197" width="12.665" height="12.665" transform="translate(302.39 655.365)" fill="#d4e8ff"/>
    <rect id="Rectangle_198" data-name="Rectangle 198" width="12.665" height="12.665" transform="translate(316.644 655.365)" fill="#d4e8ff"/>
    <rect id="Rectangle_199" data-name="Rectangle 199" width="12.665" height="12.665" transform="translate(330.898 655.365)" fill="#d4e8ff"/>
    <g id="Group_566" data-name="Group 566" transform="translate(248.782 588)">
      <ellipse id="Ellipse_35" data-name="Ellipse 35" cx="2.942" cy="2.942" rx="2.942" ry="2.942" transform="translate(0 9.152)" fill="#7689d6"/>
      <path id="Path_85" data-name="Path 85" d="M778.23,454.5c-6.112.2-4.662,7.131-4.8,11.206a1.506,1.506,0,1,0,2.428,0v-6.414a2.365,2.365,0,0,1,2.363-2.363c2.412.13,2.461,2.241,2.363,4.124h2.437C783.422,457.768,781.881,454.557,778.23,454.5Z" transform="translate(-771.71 -454.5)" fill="#8a9edd"/>
    </g>
    <path id="Path_86" data-name="Path 86" d="M747.912,794.63l3.007-3.007a.553.553,0,0,0-.782-.782l-3.007,3.007-3.007-3.007a.553.553,0,0,0-.782.782l3.007,3.007-3.007,3.007a.546.546,0,0,0,0,.782.551.551,0,0,0,.782,0l3.007-3.007,3.007,3.007a.551.551,0,0,0,.782,0,.546.546,0,0,0,0-.782Z" transform="translate(-495.406 -175.278)" fill="#b42025"/>
    <g id="Group_567" data-name="Group 567" transform="translate(291.421 588)">
      <ellipse id="Ellipse_36" data-name="Ellipse 36" cx="2.942" cy="2.942" rx="2.942" ry="2.942" transform="translate(0 9.152)" fill="#7689d6"/>
      <path id="Path_87" data-name="Path 87" d="M1301.43,454.5c-6.112.2-4.662,7.131-4.8,11.206a1.506,1.506,0,1,0,2.429,0v-6.414a2.365,2.365,0,0,1,2.363-2.363c2.412.13,2.461,2.241,2.363,4.124h2.437C1306.622,457.768,1305.081,454.557,1301.43,454.5Z" transform="translate(-1294.911 -454.5)" fill="#8a9edd"/>
    </g>
    <g id="Group_568" data-name="Group 568" transform="translate(312.74 588)">
      <ellipse id="Ellipse_37" data-name="Ellipse 37" cx="2.942" cy="2.942" rx="2.942" ry="2.942" transform="translate(0 9.152)" fill="#7689d6"/>
      <path id="Path_88" data-name="Path 88" d="M1563.03,454.5c-6.112.2-4.662,7.131-4.8,11.206a1.506,1.506,0,1,0,2.429,0v-6.414a2.365,2.365,0,0,1,2.364-2.363c2.412.13,2.461,2.241,2.363,4.124h2.437C1568.221,457.768,1566.681,454.557,1563.03,454.5Z" transform="translate(-1556.51 -454.5)" fill="#8a9edd"/>
    </g>
    <rect id="Rectangle_200" data-name="Rectangle 200" width="0.742" height="69.786" transform="translate(353.04 605.628)" fill="#b8d2ff"/>
    <rect id="Rectangle_201" data-name="Rectangle 201" width="0.742" height="69.786" transform="translate(355.502 605.628)" fill="#b8d2ff"/>
    <rect id="Rectangle_202" data-name="Rectangle 202" width="4.548" height="10.635" transform="translate(355.869 613.932)" fill="#0085a2"/>
    <rect id="Rectangle_203" data-name="Rectangle 203" width="4.548" height="10.635" transform="translate(353.407 621.813)" fill="#2eb7d5"/>
    <path id="Path_89" data-name="Path 89" d="M733.969,1125.7l1.255,3.7,3.9-.049L736,1131.69l1.255,3.7-3.195-2.257-3.13,2.339,1.157-3.733-3.187-2.257,3.9-.049Z" transform="translate(-482.294 -482.999)" fill="#8a9edd"/>
    <g id="Group_569" data-name="Group 569" transform="translate(334.06 588)">
      <ellipse id="Ellipse_38" data-name="Ellipse 38" cx="2.942" cy="2.942" rx="2.942" ry="2.942" transform="translate(0 9.152)" fill="#7689d6"/>
      <path id="Path_90" data-name="Path 90" d="M1824.73,454.5c-6.112.2-4.662,7.131-4.8,11.206a1.506,1.506,0,1,0,2.429,0v-6.414a2.365,2.365,0,0,1,2.363-2.363c2.412.13,2.461,2.241,2.364,4.124h2.437C1829.922,457.768,1828.373,454.557,1824.73,454.5Z" transform="translate(-1818.202 -454.5)" fill="#8a9edd"/>
    </g>
    <g id="Group_570" data-name="Group 570" transform="translate(270.101 588)">
      <ellipse id="Ellipse_39" data-name="Ellipse 39" cx="2.942" cy="2.942" rx="2.942" ry="2.942" transform="translate(0 9.152)" fill="#7689d6"/>
      <path id="Path_91" data-name="Path 91" d="M1039.83,454.5c-6.112.2-4.662,7.131-4.8,11.206a1.506,1.506,0,1,0,2.429,0v-6.414a2.365,2.365,0,0,1,2.364-2.363c2.412.13,2.461,2.241,2.363,4.124h2.437C1045.021,457.768,1043.481,454.557,1039.83,454.5Z" transform="translate(-1033.31 -454.5)" fill="#8a9edd"/>
    </g>
    <path id="Path_92" data-name="Path 92" d="M1090.781,963.433a4.428,4.428,0,0,1-4.482-4.2,3.721,3.721,0,0,1,1.557-3.186,4.093,4.093,0,0,1,3.871-.245.558.558,0,1,1-.416,1.035,2.951,2.951,0,0,0-2.828.13,2.621,2.621,0,0,0-1.068,2.257,3.3,3.3,0,0,0,3.374,3.1,3.155,3.155,0,0,0,3.374-3.138,4.05,4.05,0,0,0-1.1-3.13,3.651,3.651,0,0,0-2.967-1.027.556.556,0,1,1-.081-1.108,4.709,4.709,0,0,1,3.83,1.353,5.132,5.132,0,0,1,1.418,4,4.242,4.242,0,0,1-4.482,4.156Z" transform="translate(-810.566 -325.206)" fill="#b42025"/>
    <path id="Path_93" data-name="Path 93" d="M1787.212,791.452a.543.543,0,0,1-.407-.179l-3.309-3.659a.554.554,0,1,1,.823-.742l2.812,3.113,4.588-7.579a.552.552,0,0,1,.945.57l-4.979,8.215a.552.552,0,0,1-.424.261C1787.245,791.444,1787.229,791.452,1787.212,791.452Z" transform="translate(-1450.813 -167.439)" fill="#b42025"/>
    <path id="_x32_2_1_" d="M1619.873,962.314l-.032-1.752-1.011.016a3.484,3.484,0,0,0-.375-.88l.709-.733-1.263-1.214-.676.7a3.531,3.531,0,0,0-1.027-.416l-.016-1.035-1.752.033.016,1.035a3.37,3.37,0,0,0-.945.416l-.66-.644-1.214,1.263.66.644a3.278,3.278,0,0,0-.375.962l-1.011.016.032,1.752,1.011-.016a3.43,3.43,0,0,0,.456,1.011l-.677.7,1.263,1.214.709-.734a3.46,3.46,0,0,0,.888.342l.016,1.035,1.752-.033-.016-1.035a3.374,3.374,0,0,0,.945-.416l.774.75,1.214-1.263-.774-.75a3.279,3.279,0,0,0,.375-.962Zm-4.352.8a1.6,1.6,0,0,1-.269-3.195A1.6,1.6,0,0,1,1615.521,963.112Z" transform="translate(-1292.414 -328.048)" fill="#8a9edd"/>
    <path id="Path_94" data-name="Path 94" d="M974.508,1179.908H960.254a.554.554,0,0,1,0-1.108h14.254a.554.554,0,0,1,0,1.108Z" transform="translate(-694.284 -531.772)" fill="#b42025"/>
    <path id="Path_95" data-name="Path 95" d="M1802.13,1131.124h-6.617a.212.212,0,1,1,0-.424h6.617a.212.212,0,1,1,0,.424Z" transform="translate(-1461.786 -487.592)" fill="#8a9edd"/>
    <path id="Path_96" data-name="Path 96" d="M1802.13,1148.524h-6.617a.212.212,0,1,1,0-.424h6.617a.212.212,0,1,1,0,.424Z" transform="translate(-1461.786 -503.574)" fill="#8a9edd"/>
    <path id="Path_97" data-name="Path 97" d="M1797.392,1165.924h-1.98a.212.212,0,1,1,0-.424h1.98a.216.216,0,0,1,.212.212A.21.21,0,0,1,1797.392,1165.924Z" transform="translate(-1461.693 -519.556)" fill="#8a9edd"/>
    <path id="Path_98" data-name="Path 98" d="M1795.026,1176.249a.7.7,0,0,1-.326-.579l.978-.57A3.045,3.045,0,0,1,1795.026,1176.249Z" transform="translate(-1461.235 -528.374)" fill="#f99370"/>
    <path id="Path_99" data-name="Path 99" d="M1675.456,1191.224l.09-.016.106-.016.212-.033.424-.073c.285-.049.562-.114.839-.171.562-.122,1.116-.253,1.663-.408a15.474,15.474,0,0,0,1.573-.53c.245-.1.489-.212.709-.326l.163-.09.155-.09.057-.033a.362.362,0,0,1,.057-.033c.033-.024.073-.049.114-.081a2.664,2.664,0,0,0,.456-.489,5.579,5.579,0,0,0,.424-.652,11.889,11.889,0,0,0,.709-1.524c.212-.538.391-1.092.562-1.662.081-.285.163-.571.236-.856l.106-.432c.033-.138.073-.293.1-.424v-.016a.54.54,0,0,1,1.068.122c0,.326-.016.627-.033.945s-.041.619-.073.937c-.065.628-.155,1.247-.277,1.875a12.812,12.812,0,0,1-.514,1.891,8.779,8.779,0,0,1-.416.962,5.435,5.435,0,0,1-.636.962c-.065.082-.139.155-.212.236a1.668,1.668,0,0,1-.122.114l-.065.057c-.024.016-.041.041-.057.049l-.212.179-.212.163c-.285.212-.578.4-.872.579s-.587.334-.88.481-.587.293-.888.424c-.595.261-1.2.5-1.8.709-.3.106-.6.2-.913.3l-.465.139-.236.065-.122.033-.13.033h-.008a1.687,1.687,0,0,1-.839-3.268C1675.342,1191.248,1675.4,1191.232,1675.456,1191.224Z" transform="translate(-1350.393 -535.484)" fill="#f99370"/>
    <path id="Path_100" data-name="Path 100" d="M1501.911,1293.919l-.155.171-.155.155-.31.31c-.2.2-.408.407-.619.6-.424.391-.848.783-1.288,1.165s-.9.742-1.394,1.1q-.367.269-.758.514a6.971,6.971,0,0,1-.848.473c-.155.073-.318.147-.489.212l-.139.049-.073.024-.033.008-.033.008-.236.065c-.082.025-.163.041-.236.057l-.245.049c-.163.025-.326.049-.489.065a6.429,6.429,0,0,1-1.939-.1,6.548,6.548,0,0,1-1.769-.644,7.821,7.821,0,0,1-.782-.489c-.122-.09-.244-.188-.367-.285-.057-.049-.114-.1-.171-.155l-.09-.082-.1-.09a.542.542,0,0,1,.652-.856l.065.041.147.082c.057.033.106.057.163.09.114.057.22.114.334.163a7.247,7.247,0,0,0,.7.261,5.1,5.1,0,0,0,1.426.22,4.848,4.848,0,0,0,.693-.049,4.63,4.63,0,0,0,.668-.139c.106-.025.22-.073.326-.106a.894.894,0,0,0,.155-.065c.049-.024.106-.041.155-.065l.155-.073.016-.008.016-.008.024-.016c.016-.008.041-.024.057-.033.073-.049.163-.106.245-.171a11.186,11.186,0,0,0,1.076-.962c.359-.367.709-.758,1.051-1.157s.684-.807,1.019-1.231c.163-.212.334-.416.5-.628l.245-.318.122-.155.114-.147.008-.008a1.683,1.683,0,0,1,2.7,2.013A.781.781,0,0,1,1501.911,1293.919Z" transform="translate(-1180.483 -634.911)" fill="#f99370"/>
    <path id="Path_101" data-name="Path 101" d="M1693.442,1199.722a8.219,8.219,0,0,1-3.651,4.075,15.546,15.546,0,0,1-4.784,1.8l-.22-.538-1.687-4.1s4.287-.677,5.958-1.858c1.027-.725,2.551-3.39,3.211-5.012q.086-.208.147-.391a1.537,1.537,0,0,0,1.182.025s.033.155.065.416A14.393,14.393,0,0,1,1693.442,1199.722Z" transform="translate(-1358.73 -545.458)" fill="#ff4c4c"/>
    <path id="Path_102" data-name="Path 102" d="M1505.3,1283.6l-.945,6.365a7.074,7.074,0,0,1-1.19.978,11.192,11.192,0,0,1-4.222,1.687h0a6.941,6.941,0,0,1-1.679.09,6.351,6.351,0,0,1-3.871-2.013c-.187-.2-.293-.334-.293-.334a1.337,1.337,0,0,0,.677-.9c.147.057.285.114.424.163,4.482,1.532,7.245-3.04,8.459-4.482A4.05,4.05,0,0,1,1505.3,1283.6Z" transform="translate(-1184.214 -628.031)" fill="#ff4c4c"/>
    <path id="Path_103" data-name="Path 103" d="M1569.021,1349.9a11.192,11.192,0,0,1-4.221,1.687,6.019,6.019,0,0,0,3.9-3.789Z" transform="translate(-1250.07 -686.999)" fill="#faaaac"/>
    <path id="Path_104" data-name="Path 104" d="M1708.7,1317.6a15.554,15.554,0,0,1-4.784,1.8l-.22-.538.611-.709A8.848,8.848,0,0,0,1708.7,1317.6Z" transform="translate(-1377.651 -659.26)" fill="#faaaac"/>
    <path id="Path_105" data-name="Path 105" d="M1616.365,1686.188c-.106.212,2.5.049,2.543.1.261-.065.008-.774-.073-.9-.546-.725.114-4.034.1-4.882h-2.494c-.024.839.595,4.164.073,4.873A1.493,1.493,0,0,0,1616.365,1686.188Z" transform="translate(-1297.43 -992.585)" fill="#f99370"/>
    <path id="Path_106" data-name="Path 106" d="M1692.765,1686.188c-.106.212,2.5.049,2.543.1.261-.065.008-.774-.073-.9-.546-.725.114-4.034.1-4.882h-2.494c-.024.839.595,4.164.073,4.873A1.494,1.494,0,0,0,1692.765,1686.188Z" transform="translate(-1367.604 -992.585)" fill="#f99370"/>
    <path id="Path_107" data-name="Path 107" d="M1695.6,1733.809a4.31,4.31,0,0,1-1.271.139,5.278,5.278,0,0,1-1.418-.139s-.008-.1-.008-.253a2.282,2.282,0,0,1,.318-1.271,3.365,3.365,0,0,1,1.972,0,1.775,1.775,0,0,1,.416,1.312A1.768,1.768,0,0,0,1695.6,1733.809Z" transform="translate(-1367.731 -1040.011)" fill="#1d3f70"/>
    <path id="Path_108" data-name="Path 108" d="M1695.6,1749.853a4.314,4.314,0,0,1-1.271.138,5.282,5.282,0,0,1-1.418-.138s-.008-.1-.008-.253a8.655,8.655,0,0,0,2.706.041A1.76,1.76,0,0,0,1695.6,1749.853Z" transform="translate(-1367.731 -1056.054)" fill="#103663"/>
    <path id="Path_109" data-name="Path 109" d="M1619.2,1733.809a4.309,4.309,0,0,1-1.271.139,5.278,5.278,0,0,1-1.418-.139s-.008-.1-.008-.253a2.282,2.282,0,0,1,.318-1.271,3.365,3.365,0,0,1,1.972,0,1.775,1.775,0,0,1,.416,1.312A1.768,1.768,0,0,0,1619.2,1733.809Z" transform="translate(-1297.557 -1040.011)" fill="#1d3f70"/>
    <path id="Path_110" data-name="Path 110" d="M1608.616,1452.19c-.041.407-.065.636-.065.636a3.665,3.665,0,0,1-3.4.155c-.432-5.729-1.654-16.8-1.654-16.748-.375,5.5-.986,12.469-1.051,16.878a4.243,4.243,0,0,1-3.667-.13,100.313,100.313,0,0,1-.562-23.577c3.936.888,9.894-.2,9.894-.2C1610.075,1435.981,1608.918,1449.159,1608.616,1452.19Z" transform="translate(-1280.366 -761.766)"/>
    <rect id="Rectangle_204" data-name="Rectangle 204" width="1.638" height="1.94" transform="translate(321.95 653.857)" fill="#f99370"/>
    <path id="Path_111" data-name="Path 111" d="M1607.1,1295.7c-1.418.954-8.19,1.606-11.4.082,0-.008,1.6-11.792,2.73-13.39a7.556,7.556,0,0,1,5.46-.09C1605.382,1283.569,1607.093,1295.8,1607.1,1295.7Z" transform="translate(-1278.452 -626.403)" fill="#ff4c4c"/>
    <path id="Path_112" data-name="Path 112" d="M1654.787,1276.205c-1.206.4-1.687,0-1.687,0h.008l.016-.505a2.427,2.427,0,0,0,1.638,0Z" transform="translate(-1331.175 -620.775)" fill="#103663"/>
    <path id="Path_113" data-name="Path 113" d="M1649.22,1217.165a3.128,3.128,0,0,0,3.423-.5c1.149-1.165-.122-2.551-.163-3.8-.024-.334-.016-.57-.016-.57C1647.688,1212.838,1648.967,1217.141,1649.22,1217.165Z" transform="translate(-1327.294 -562.542)" fill="#f99370"/>
    <path id="Path_114" data-name="Path 114" d="M1652.2,1262.819v1.084s.522.872,1.842-.008v-1.7Z" transform="translate(-1330.348 -608.375)" fill="#f99370"/>
    <path id="Path_115" data-name="Path 115" d="M1663.028,1216.89c.244-.032,1.222-.187,1.3-.693a2.629,2.629,0,0,1,.187-.717l.505-.848a2.9,2.9,0,0,1,.4-1.662h0c-.025-.334-.016-.57-.016-.57-.114.016-.236.041-.342.065l-.807.538-.9.9C1663.37,1213.891,1662.783,1216.923,1663.028,1216.89Z" transform="translate(-1340.238 -562.634)" fill="#e57d61"/>
    <path id="Path_116" data-name="Path 116" d="M1635.619,1194.014a3.153,3.153,0,0,1,.611-1.72c1.19-1.32-.081-1.9-.953-2.029s-4,.815-3.586,2.339c0,0-1.092.4-.041,2.844a2.923,2.923,0,0,0,1.247,1.3,4.52,4.52,0,0,1,.945-.188c.383-.041.986-.318,1.043-.7A3.009,3.009,0,0,1,1635.619,1194.014Z" transform="translate(-1311.053 -542.292)" fill="#662948"/>
    <path id="Path_117" data-name="Path 117" d="M1677.712,1233.589a.623.623,0,1,0,.326-.913A.694.694,0,0,0,1677.712,1233.589Z" transform="translate(-1353.732 -581.231)" fill="#f99370"/>
    <path id="Path_118" data-name="Path 118" d="M1680.826,1236.192c-.016,0-.326-.082-.473.1a.317.317,0,0,0-.065.171h0v.016h0a1.148,1.148,0,0,0,.114.481.042.042,0,0,0,.057.024h.008a.051.051,0,0,0,.024-.065.972.972,0,0,1-.106-.391.673.673,0,0,1,.464.31.063.063,0,0,0,.057.025c.008,0,.008,0,.016-.008a.044.044,0,0,0,.016-.065.76.76,0,0,0-.538-.367.11.11,0,0,1,.041-.073c.106-.13.375-.065.375-.065a.046.046,0,0,0,.057-.032A.067.067,0,0,0,1680.826,1236.192Z" transform="translate(-1356.146 -584.47)" fill="#c16256"/>
    <path id="Path_119" data-name="Path 119" d="M1619.2,1749.853a4.313,4.313,0,0,1-1.271.138,5.282,5.282,0,0,1-1.418-.138s-.008-.1-.008-.253a8.656,8.656,0,0,0,2.706.041A1.76,1.76,0,0,0,1619.2,1749.853Z" transform="translate(-1297.557 -1056.054)" fill="#103663"/>
    <path id="Path_120" data-name="Path 120" d="M1652.2,1277.087v-.147a2.822,2.822,0,0,0,1.842-.041v.187A2.349,2.349,0,0,1,1652.2,1277.087Z" transform="translate(-1330.348 -621.877)" fill="#f4d4be"/>
    <path id="Path_121" data-name="Path 121" d="M1691.021,1711.3c-.041.407-.065.636-.065.636a3.665,3.665,0,0,1-3.4.155c-.016-.236-.041-.481-.057-.733A4.971,4.971,0,0,0,1691.021,1711.3Z" transform="translate(-1362.771 -1020.875)"/>
    <path id="Path_122" data-name="Path 122" d="M1612.317,1531.826c.318-5.085.326-13.088,1.491-16.226-.375,5.5-.986,12.469-1.051,16.878a4.242,4.242,0,0,1-3.667-.13c-.033-.228-.057-.448-.09-.668A5.88,5.88,0,0,0,1612.317,1531.826Z" transform="translate(-1290.668 -841.124)"/>
    <path id="Path_123" data-name="Path 123" d="M1659.133,1489.515a4.264,4.264,0,0,1-.75-2.315,4.708,4.708,0,0,0,.562,2.885Z" transform="translate(-1335.993 -815.039)"/>
    <path id="Path_124" data-name="Path 124" d="M1642.845,1282h0l-.041.041a2.578,2.578,0,0,1-.628.4,3.524,3.524,0,0,1-1.312.31,2.79,2.79,0,0,1-1.23-.2,2.133,2.133,0,0,1-.668-.424l-.065-.065a6.868,6.868,0,0,1,1.084-.163,15.413,15.413,0,0,1,1.842-.016h.057a1.554,1.554,0,0,1,.2.016h.008C1642.258,1281.915,1642.519,1281.939,1642.845,1282Z" transform="translate(-1318.132 -626.427)" fill="#faaaac"/>
    <path id="Path_125" data-name="Path 125" d="M1643.566,1279.2a1.375,1.375,0,0,0-.766.351,2.445,2.445,0,0,0,1.646.481,2.738,2.738,0,0,0,1.63-.546,1.672,1.672,0,0,0-.676-.285A2.5,2.5,0,0,1,1643.566,1279.2Z" transform="translate(-1321.714 -623.99)" fill="#b42025"/>
    <path id="Path_126" data-name="Path 126" d="M1773.147,1167.307a.2.2,0,0,1-.2-.138.217.217,0,0,1,.122-.277l3.993-1.54a.218.218,0,0,1,.277.122.221.221,0,0,1-.122.277l-3.993,1.54A.161.161,0,0,1,1773.147,1167.307Z" transform="translate(-1441.246 -519.407)" fill="#8d4fa9"/>
    <path id="Path_127" data-name="Path 127" d="M1798.941,1173.034s.212-1.068-.3-1.434l-.84.326s.31.261.073,1.116C1797.874,1173.034,1798.11,1173.377,1798.941,1173.034Z" transform="translate(-1464.082 -525.159)" fill="#f99370"/>
    <path id="Path_128" data-name="Path 128" d="M1795.624,1174.523c.1.188.065.448-.025.5s-.081-.155-.179-.342-.22-.187-.22-.187C1795.282,1174.2,1795.526,1174.335,1795.624,1174.523Z" transform="translate(-1461.694 -527.658)" fill="#f99370"/>
    <path id="Path_129" data-name="Path 129" d="M1805.107,1170.725c.1.188.1.375,0,.424s-.244-.065-.334-.253-.1-.375,0-.424S1805.01,1170.538,1805.107,1170.725Z" transform="translate(-1470.419 -524.113)" fill="#f99370"/>
    <path id="Path_130" data-name="Path 130" d="M1801.808,1172.025c.1.187.1.375,0,.424s-.245-.065-.334-.253-.1-.375,0-.424S1801.71,1171.838,1801.808,1172.025Z" transform="translate(-1467.388 -525.307)" fill="#f99370"/>
    <path id="Path_131" data-name="Path 131" d="M1798.542,1173.225c.1.188.1.375,0,.424s-.245-.065-.334-.253-.1-.375,0-.424S1798.452,1173.038,1798.542,1173.225Z" transform="translate(-1464.392 -526.409)" fill="#f99370"/>
    <path id="Path_132" data-name="Path 132" d="M1461.875,1325.264c-.2.1.106.546.073.758a4.031,4.031,0,0,1-.619-.432,13.3,13.3,0,0,1-.766-1.141c-.611-.334.318,1.149.383,1.312l-.008.008a10.934,10.934,0,0,1-1.019-1.019c-.7-.2.668,1.19.782,1.328h0a6.055,6.055,0,0,1-1.076-.856c-.725-.139.774,1.165.937,1.263v.008a6.784,6.784,0,0,1-.953-.53c-.693-.033.766.9.921.986a4.334,4.334,0,0,0,1.434.693c.253.081.652-.554.6-.815a3.219,3.219,0,0,0-.252-.652C1462.258,1325.941,1462.152,1325.264,1461.875,1325.264Z" transform="translate(-1153.282 -665.507)" fill="#f99370"/>
    <path id="Path_133" data-name="Path 133" d="M1796.9,1194.14a2.474,2.474,0,0,1-1.4-.049q.086-.208.146-.391a1.538,1.538,0,0,0,1.182.024C1796.829,1193.716,1796.861,1193.871,1796.9,1194.14Z" transform="translate(-1461.969 -545.458)" fill="#b42025"/>
    <path id="Path_134" data-name="Path 134" d="M1494.2,1355.863a1.431,1.431,0,0,1-.807,1.068c-.188-.2-.293-.334-.293-.334a1.337,1.337,0,0,0,.676-.9A4.5,4.5,0,0,0,1494.2,1355.863Z" transform="translate(-1184.214 -694.255)" fill="#faaaac"/>
    <path id="Path_135" data-name="Path 135" d="M1098.351,1294.281a.809.809,0,0,0,.766-.562l1.589-5.045h9.3l-1.443,4.564a.8.8,0,0,0,1.524.481c4.776-15.15,10.057-31.9,14.816-46.967a.8.8,0,0,0-1.524-.481l-1.434,4.548h-9.3l1.28-4.067a.8.8,0,0,0-1.524-.481c-4.759,15.085-10.04,31.833-14.816,46.975A.808.808,0,0,0,1098.351,1294.281Zm14.62-15h-9.3l1.744-5.517h9.3Zm-3.072-19.755h9.3l-1.744,5.517h-9.3Zm7.057,7.123-1.744,5.517h-9.3l1.744-5.517Zm4.491-14.238-1.744,5.517h-9.3l1.744-5.517Zm-20.236,34.652,1.948-6.186h9.3l-1.956,6.21a.806.806,0,0,0-.2-.024Z" transform="translate(-820.898 -593.245)" fill="#1d3f70"/>
    <path id="Path_136" data-name="Path 136" d="M1286.046,1249.5l-4.246-.041c.057-1.467.293-3.651.522-5.159l2.16.09-.815,3.04a.718.718,0,0,0,.456.823c.782.318,1.744.155,2.192.848A.281.281,0,0,1,1286.046,1249.5Z" transform="translate(-990.135 -591.934)" fill="#f99370"/>
    <path id="Path_137" data-name="Path 137" d="M1280.2,1289.014a1.436,1.436,0,0,0,.106.448h4.262a.308.308,0,0,0,.293-.4c-.155-.456-.709-1.125-2.673-1.247a4.069,4.069,0,0,1-1.76-.016A2.8,2.8,0,0,0,1280.2,1289.014Z" transform="translate(-988.653 -631.889)" fill="#eb5648"/>
    <path id="Path_138" data-name="Path 138" d="M1321.255,1293.163a.085.085,0,0,0,.082-.057.936.936,0,0,1,.456-.505c.228-.342-.416-.106-.611.44A.084.084,0,0,0,1321.255,1293.163Z" transform="translate(-1026.297 -636.152)" fill="#e8c0a6"/>
    <path id="Path_139" data-name="Path 139" d="M1313.041,1290.534a.089.089,0,0,0,.082-.057,1.15,1.15,0,0,1,.538-.644c.187-.4-.538.024-.7.595A.081.081,0,0,0,1313.041,1290.534Z" transform="translate(-1018.751 -633.612)" fill="#e8c0a6"/>
    <path id="Path_140" data-name="Path 140" d="M1303.755,1288.632a.1.1,0,0,0,.081-.057,1.453,1.453,0,0,1,.546-.709c.139-.416-.514.082-.7.652A.078.078,0,0,0,1303.755,1288.632Z" transform="translate(-1010.224 -631.808)" fill="#e8c0a6"/>
    <path id="Path_141" data-name="Path 141" d="M1284.962,1302.741l-4.662-.041a1.234,1.234,0,0,0,.122.408l4.246.041A.308.308,0,0,0,1284.962,1302.741Z" transform="translate(-988.757 -645.574)" fill="#ce3932"/>
    <path id="Path_142" data-name="Path 142" d="M1281.745,884.593a8.837,8.837,0,0,0-3.276,13.414.611.611,0,1,0,1.019-.66c-1.426-3.708-.424-7.7,3.659-8.867l-.016.008A2.068,2.068,0,0,0,1281.745,884.593Z" transform="translate(-985.401 -261.419)" fill="#f99370"/>
    <path id="Path_143" data-name="Path 143" d="M1274.992,892.875a5.118,5.118,0,0,0,3.374-.334l3.374-7.62C1278.512,884.244,1274.674,889.411,1274.992,892.875Z" transform="translate(-983.864 -261.787)" fill="#b42025"/>
    <path id="Path_144" data-name="Path 144" d="M1291.7,948.927a5.54,5.54,0,0,0,1.133-.187l.163-3.04A7.726,7.726,0,0,0,1291.7,948.927Z" transform="translate(-999.228 -317.669)" fill="#ff4c4c"/>
    <path id="Path_145" data-name="Path 145" d="M1344.054,879.923c5.566,3.2,10.9,2.624,13.276-3.9.22-.831-.856-1.084-1.174-.326-2.95,4.221-5.876,4.018-9.625.913h0A2.067,2.067,0,0,0,1344.054,879.923Z" transform="translate(-1046.554 -252.959)" fill="#f99370"/>
    <path id="Path_146" data-name="Path 146" d="M1345.391,1247.754l-4.189.008c-.155-1.035.758-4.409,1.011-5.363l2.274.473-1.149,2.738s-.53.725.171.921c.774.261,1.605.171,2.135.717A.314.314,0,0,1,1345.391,1247.754Z" transform="translate(-1044.68 -590.188)" fill="#f99370"/>
    <path id="Path_147" data-name="Path 147" d="M1339.768,1289.514a1.086,1.086,0,0,0,.13.407l4.246-.008a.3.3,0,0,0,.285-.4c-.163-.457-.725-1.117-2.681-1.214a4.2,4.2,0,0,1-1.76,0A2.605,2.605,0,0,0,1339.768,1289.514Z" transform="translate(-1043.367 -632.348)" fill="#eb5648"/>
    <path id="Path_148" data-name="Path 148" d="M1380.8,1293.282a.085.085,0,0,0,.081-.057.872.872,0,0,1,.448-.505c.22-.342-.416-.1-.611.44A.087.087,0,0,0,1380.8,1293.282Z" transform="translate(-1080.986 -636.262)" fill="#e8c0a6"/>
    <path id="Path_149" data-name="Path 149" d="M1372.609,1290.644a.081.081,0,0,0,.082-.057,1.187,1.187,0,0,1,.53-.652c.179-.4-.538.024-.693.6C1372.5,1290.587,1372.552,1290.644,1372.609,1290.644Z" transform="translate(-1073.462 -633.706)" fill="#e8c0a6"/>
    <path id="Path_150" data-name="Path 150" d="M1363.241,1288.775a.1.1,0,0,0,.082-.057,1.51,1.51,0,0,1,.538-.717c.09-.057,0-.2-.1-.147a1.685,1.685,0,0,0-.6.807A.091.091,0,0,0,1363.241,1288.775Z" transform="translate(-1064.86 -631.927)" fill="#e8c0a6"/>
    <path id="Path_151" data-name="Path 151" d="M1344.562,1303.1l-4.662.008a1.088,1.088,0,0,0,.13.407l4.246-.008A.3.3,0,0,0,1344.562,1303.1Z" transform="translate(-1043.5 -645.942)" fill="#ce3932"/>
    <path id="Path_152" data-name="Path 152" d="M1275.192,977.505a4.477,4.477,0,0,0,2.143.065l-.3-.4A3.952,3.952,0,0,1,1275.2,977C1275.192,977.171,1275.192,977.334,1275.192,977.505Z" transform="translate(-984.064 -346.418)" fill="#ff4c4c"/>
    <path id="Path_153" data-name="Path 153" d="M1297.032,896.949l-8.932-1.361c1.932-13.683,8.394-14.189,9.446-6.455A31.526,31.526,0,0,1,1297.032,896.949Z" transform="translate(-995.921 -261.103)" fill="#b42025"/>
    <path id="Path_154" data-name="Path 154" d="M1392.537,950.443a11.214,11.214,0,0,0-.937-4.613l.994-.13A23.5,23.5,0,0,1,1392.537,950.443Z" transform="translate(-1090.986 -317.669)" fill="#ff4c4c"/>
    <path id="Path_155" data-name="Path 155" d="M1276.7,1022.574a4.576,4.576,0,0,0,3.113.359,36.524,36.524,0,0,0,2.42-16.161c.139-.212,2.8,6.772-.09,16.2a3.175,3.175,0,0,0,2.469.562,27.712,27.712,0,0,0,2.339-22.159c-1.133-.44-7.636-1.068-9.005-.407a10.343,10.343,0,0,0-.791,6.365c.9,4.874-.008,12.143-.342,14.482h0C1276.749,1022.3,1276.7,1022.574,1276.7,1022.574Z" transform="translate(-985.45 -368.171)"/>
    <path id="Path_156" data-name="Path 156" d="M1346.469,1266.038c-.245.473-.4.725-.4.725a3.175,3.175,0,0,1-2.469-.562c.065-.236.13-.473.2-.7A3.347,3.347,0,0,0,1346.469,1266.038Z" transform="translate(-1046.898 -611.406)" fill="#141414"/>
    <path id="Path_157" data-name="Path 157" d="M1289.613,994.812a15.925,15.925,0,0,1,9.014.554,1.029,1.029,0,0,1,.122.693s-5.656-1.165-9.372-.367A1.542,1.542,0,0,1,1289.613,994.812Z" transform="translate(-997.092 -362.42)" fill="#b42025"/>
    <path id="Path_158" data-name="Path 158" d="M1363.269,885.8c-.53,4.678,3.472,7.913,8.525,5.028h0a3.752,3.752,0,0,0,.456-.367,2.583,2.583,0,0,0-.937-2.152,6.643,6.643,0,0,1-3.684-.407A37.931,37.931,0,0,0,1363.269,885.8Z" transform="translate(-1064.92 -262.65)" fill="#b42025"/>
    <path id="Path_159" data-name="Path 159" d="M1291.69,794.926a2.954,2.954,0,0,0-3.406,2.486c-.448,1.76-2.176,1.475-3.472,3.586-1.353,2.208-.269,4.189,1.687,5.33,3.594,2.151,9.413-1.76,7.579-6.023C1293.3,798.463,1293.671,795.333,1291.69,794.926Z" transform="translate(-992.348 -179.135)"/>
    <path id="Path_160" data-name="Path 160" d="M1455.6,916.657a3.073,3.073,0,0,1,1.051,2.461,3.743,3.743,0,0,0,.457-.367,2.583,2.583,0,0,0-.937-2.151S1455.951,916.633,1455.6,916.657Z" transform="translate(-1149.77 -290.94)" fill="#ff4c4c"/>
    <path id="Path_161" data-name="Path 161" d="M1276.7,1260.758a4.575,4.575,0,0,0,3.113.359s.082-.228.212-.611a5.143,5.143,0,0,1-3.211-.505C1276.749,1260.481,1276.7,1260.758,1276.7,1260.758Z" transform="translate(-985.45 -606.354)" fill="#141414"/>
    <path id="Path_162" data-name="Path 162" d="M1308.2,1072.222h.66a36.125,36.125,0,0,0,2.306-15.827,2.218,2.218,0,0,1-.945-1.7C1310.6,1059.411,1311.167,1064.667,1308.2,1072.222Z" transform="translate(-1014.383 -417.786)" fill="#141414"/>
    <rect id="Rectangle_205" data-name="Rectangle 205" width="7.025" height="10.154" transform="translate(306.347 620.766) rotate(-77.444)" fill="#eb5648"/>
    <g id="Group_571" data-name="Group 571" transform="translate(311.101 615.779)">
      <path id="Path_163" data-name="Path 163" d="M1525.758,799.2l.5.114a.175.175,0,0,0,.2-.122l.88-3.464a.184.184,0,0,0-.016-.13.16.16,0,0,0-.106-.073l-.7-.155a.181.181,0,0,0-.13.024.158.158,0,0,0-.073.114l-.677,3.513A.155.155,0,0,0,1525.758,799.2Z" transform="translate(-1525.194 -795.363)" fill="#d4e8ff"/>
      <path id="Path_164" data-name="Path 164" d="M1521.031,846.032a.631.631,0,1,0,.456.741A.588.588,0,0,0,1521.031,846.032Z" transform="translate(-1520.28 -841.889)" fill="#d4e8ff"/>
    </g>
    <path id="Path_165" data-name="Path 165" d="M1502.821,859.09c.383-.025-.073.448-.008.725l1.353.3a2.872,2.872,0,0,1-1.222,1.41c-.236.163-1.043-.383-1.043-.66C1501.908,860.3,1502.528,859.114,1502.821,859.09Z" transform="translate(-1192.297 -238.116)" fill="#f99370"/>
  </g>
</svg>
