<?xml version="1.0" encoding="utf-8"?>
<!-- Generator: Adobe Illustrator 24.2.3, SVG Export Plug-In . SVG Version: 6.00 Build 0)  -->
<svg version="1.1" id="Layer_1" xmlns="http://www.w3.org/2000/svg" xmlns:xlink="http://www.w3.org/1999/xlink" x="0px" y="0px"
	 viewBox="0 0 238.77 95.44" style="enable-background:new 0 0 238.77 95.44;" xml:space="preserve">
<style type="text/css">
	.st0{fill:#343A40;}
	.st1{fill:#C12126;}
	.st2{fill:#B42126;}
	.st3{fill:#B42025;}
</style>
<g>
	<g>
		<path class="st0" d="M53.06,52.59c0-6.86,5.43-12.15,12.19-12.15c6.76,0,12.19,5.29,12.19,12.15c0,6.85-5.43,12.15-12.19,12.15
			C58.48,64.74,53.06,59.45,53.06,52.59z M70.54,52.59c0-3.27-2.3-5.43-5.29-5.43c-2.99,0-5.29,2.16-5.29,5.43
			c0,3.27,2.3,5.43,5.29,5.43C68.24,58.02,70.54,55.86,70.54,52.59z"/>
		<path class="st0" d="M95.15,40.63v7.82c-2.85-0.46-6.9,0.69-6.9,5.24v10.4h-6.9v-23h6.9v4.09C89.17,42.1,92.25,40.63,95.15,40.63z
			"/>
		<path class="st0" d="M112.63,64.09l-7.36-10.17v10.17h-6.9v-32.2h6.9v19.28l6.9-10.08h8.05l-8.37,11.5l8.6,11.5H112.63z"/>
		<path class="st0" d="M147.73,52.59c0,6.85-4.97,12.15-11,12.15c-3.08,0-5.34-1.06-6.85-2.81v11.36h-6.9v-32.2h6.9v2.16
			c1.52-1.75,3.77-2.81,6.85-2.81C142.76,40.45,147.73,45.74,147.73,52.59z M140.82,52.59c0-3.45-2.3-5.61-5.47-5.61
			c-3.17,0-5.47,2.16-5.47,5.61c0,3.45,2.3,5.61,5.47,5.61C138.52,58.2,140.82,56.04,140.82,52.59z"/>
		<path class="st0" d="M151.63,30.51h6.9v33.58h-6.9V30.51z"/>
		<path class="st0" d="M187.19,41.09v23h-6.9v-2.16c-1.52,1.75-3.77,2.81-6.85,2.81c-6.03,0-11-5.29-11-12.15
			c0-6.86,4.97-12.15,11-12.15c3.08,0,5.34,1.06,6.85,2.81v-2.16H187.19z M180.29,52.59c0-3.45-2.3-5.61-5.47-5.61
			c-3.17,0-5.47,2.16-5.47,5.61c0,3.45,2.3,5.61,5.47,5.61C177.99,58.2,180.29,56.04,180.29,52.59z"/>
		<path class="st0" d="M191.1,52.59c0-6.86,5.2-12.15,12.19-12.15c4.46,0,8.42,2.35,10.4,5.89l-6.03,3.5
			c-0.78-1.61-2.44-2.58-4.46-2.58c-2.99,0-5.2,2.16-5.2,5.34c0,3.17,2.21,5.34,5.2,5.34c2.02,0,3.73-0.97,4.46-2.58l6.03,3.45
			c-1.98,3.59-5.89,5.94-10.4,5.94C196.3,64.74,191.1,59.45,191.1,52.59z"/>
		<path class="st0" d="M227.67,58.57c1.89,0,3.5-0.74,4.42-1.75l5.52,3.17c-2.25,3.13-5.66,4.74-10.03,4.74
			c-7.87,0-12.74-5.29-12.74-12.15c0-6.86,4.97-12.15,12.24-12.15c6.72,0,11.68,5.2,11.68,12.15c0,0.97-0.09,1.89-0.28,2.76h-16.33
			C223.02,57.74,225.14,58.57,227.67,58.57z M231.9,50.2c-0.74-2.67-2.81-3.63-4.88-3.63c-2.62,0-4.37,1.29-5.01,3.63H231.9z"/>
	</g>
	<g>
		<path class="st1" d="M136.1,95.41c-1.34,0-2.48-0.28-3.42-0.83c-0.94-0.55-1.62-1.34-2.04-2.37c-0.42-1.03-0.5-2.26-0.24-3.71
			c0.06-0.3,0.14-0.7,0.24-1.2c0.1-0.5,0.19-0.9,0.27-1.2c0.52-2.16,1.48-3.85,2.87-5.07c1.39-1.22,3.17-1.83,5.36-1.83
			c1.18,0,2.16,0.17,2.94,0.5c0.78,0.33,1.4,0.76,1.85,1.29c0.45,0.53,0.75,1.08,0.92,1.67c0.16,0.58,0.21,1.13,0.15,1.65
			c-0.02,0.2-0.09,0.36-0.22,0.49c-0.13,0.13-0.3,0.2-0.5,0.2h-1.56c-0.2,0-0.35-0.05-0.46-0.15c-0.11-0.1-0.17-0.26-0.17-0.48
			c0.02-0.98-0.25-1.69-0.79-2.13c-0.55-0.44-1.3-0.66-2.26-0.66c-1.18,0-2.25,0.37-3.23,1.11c-0.97,0.74-1.65,1.93-2.05,3.57
			c-0.08,0.32-0.16,0.68-0.24,1.07s-0.15,0.74-0.21,1.04c-0.28,1.66-0.15,2.85,0.39,3.58s1.41,1.09,2.61,1.09
			c0.92,0,1.78-0.2,2.57-0.6s1.43-1.09,1.93-2.07c0.14-0.24,0.27-0.4,0.38-0.48c0.11-0.08,0.27-0.12,0.46-0.12h1.53
			c0.18,0,0.32,0.06,0.42,0.18c0.1,0.12,0.12,0.28,0.06,0.48c-0.14,0.5-0.39,1.04-0.75,1.62c-0.36,0.58-0.85,1.12-1.46,1.64
			c-0.61,0.51-1.36,0.92-2.24,1.24C138.31,95.25,137.27,95.41,136.1,95.41z"/>
		<path class="st1" d="M146.93,95.11c-0.2,0-0.36-0.06-0.46-0.2c-0.11-0.13-0.15-0.29-0.1-0.5l4.26-19.92
			c0.04-0.2,0.13-0.36,0.29-0.5c0.15-0.13,0.32-0.19,0.52-0.19h1.53c0.2,0,0.35,0.06,0.45,0.19c0.1,0.13,0.13,0.3,0.09,0.5
			l-1.5,6.99c0.62-0.68,1.33-1.23,2.14-1.65c0.81-0.42,1.8-0.63,2.99-0.63c1.36,0,2.46,0.29,3.29,0.86c0.83,0.57,1.39,1.36,1.7,2.37
			c0.3,1.01,0.3,2.18,0,3.52l-1.8,8.46c-0.04,0.2-0.13,0.37-0.29,0.5c-0.15,0.13-0.33,0.2-0.52,0.2h-1.53c-0.2,0-0.36-0.06-0.46-0.2
			c-0.11-0.13-0.15-0.29-0.11-0.5l1.77-8.31c0.3-1.4,0.24-2.5-0.18-3.29s-1.29-1.19-2.61-1.19c-0.82,0-1.6,0.18-2.34,0.53
			c-0.74,0.35-1.38,0.86-1.91,1.53s-0.91,1.47-1.12,2.42l-1.74,8.31c-0.04,0.2-0.13,0.37-0.28,0.5c-0.15,0.13-0.33,0.2-0.53,0.2
			H146.93z"/>
		<path class="st1" d="M171.05,95.41c-1.36,0-2.49-0.29-3.38-0.87c-0.89-0.58-1.51-1.4-1.85-2.47s-0.41-2.33-0.21-3.77
			c0.04-0.26,0.11-0.59,0.2-1c0.09-0.41,0.17-0.75,0.25-1c0.4-1.42,1-2.67,1.79-3.74c0.79-1.07,1.75-1.89,2.89-2.47
			c1.14-0.58,2.39-0.87,3.75-0.87c1.52,0,2.72,0.32,3.6,0.96c0.88,0.64,1.47,1.55,1.77,2.73s0.29,2.56-0.03,4.14l-0.12,0.51
			c-0.04,0.22-0.15,0.39-0.32,0.51c-0.17,0.12-0.36,0.18-0.55,0.18h-10.35c0,0.02,0,0.06-0.01,0.12c-0.01,0.06-0.03,0.11-0.04,0.15
			c-0.12,0.82-0.1,1.59,0.06,2.29c0.16,0.71,0.5,1.29,1.01,1.73c0.51,0.44,1.18,0.66,2.02,0.66c0.72,0,1.34-0.11,1.88-0.33
			s0.96-0.46,1.3-0.74c0.34-0.27,0.58-0.47,0.72-0.62c0.24-0.26,0.42-0.41,0.52-0.46c0.11-0.05,0.29-0.08,0.53-0.08h1.44
			c0.18,0,0.32,0.06,0.42,0.17c0.1,0.11,0.13,0.27,0.09,0.47c-0.08,0.3-0.32,0.67-0.71,1.09c-0.39,0.43-0.91,0.85-1.56,1.27
			c-0.65,0.42-1.41,0.77-2.26,1.04C173.03,95.28,172.08,95.41,171.05,95.41z M168.94,86.17h8.19l0.03-0.09
			c0.24-0.9,0.27-1.7,0.08-2.4c-0.19-0.7-0.55-1.25-1.09-1.67c-0.54-0.41-1.24-0.61-2.1-0.61c-0.86,0-1.63,0.21-2.31,0.61
			c-0.68,0.41-1.25,0.97-1.72,1.67c-0.47,0.7-0.82,1.5-1.04,2.4L168.94,86.17z"/>
		<path class="st1" d="M187.64,95.41c-1.34,0-2.48-0.28-3.42-0.83c-0.94-0.55-1.62-1.34-2.04-2.37c-0.42-1.03-0.5-2.26-0.24-3.71
			c0.06-0.3,0.14-0.7,0.24-1.2c0.1-0.5,0.19-0.9,0.27-1.2c0.52-2.16,1.48-3.85,2.87-5.07c1.39-1.22,3.17-1.83,5.36-1.83
			c1.18,0,2.16,0.17,2.94,0.5c0.78,0.33,1.4,0.76,1.85,1.29c0.45,0.53,0.75,1.08,0.92,1.67c0.16,0.58,0.21,1.13,0.15,1.65
			c-0.02,0.2-0.09,0.36-0.22,0.49c-0.13,0.13-0.3,0.2-0.5,0.2h-1.56c-0.2,0-0.35-0.05-0.46-0.15c-0.11-0.1-0.17-0.26-0.17-0.48
			c0.02-0.98-0.25-1.69-0.79-2.13c-0.55-0.44-1.3-0.66-2.26-0.66c-1.18,0-2.25,0.37-3.23,1.11c-0.97,0.74-1.65,1.93-2.05,3.57
			c-0.08,0.32-0.16,0.68-0.24,1.07s-0.15,0.74-0.21,1.04c-0.28,1.66-0.15,2.85,0.39,3.58s1.41,1.09,2.61,1.09
			c0.92,0,1.78-0.2,2.57-0.6s1.43-1.09,1.93-2.07c0.14-0.24,0.27-0.4,0.38-0.48c0.11-0.08,0.27-0.12,0.46-0.12h1.53
			c0.18,0,0.32,0.06,0.42,0.18c0.1,0.12,0.12,0.28,0.06,0.48c-0.14,0.5-0.39,1.04-0.75,1.62c-0.36,0.58-0.85,1.12-1.46,1.64
			c-0.61,0.51-1.36,0.92-2.24,1.24C189.85,95.25,188.81,95.41,187.64,95.41z"/>
		<path class="st1" d="M198.46,95.11c-0.2,0-0.36-0.06-0.46-0.2c-0.11-0.13-0.15-0.29-0.1-0.5l4.26-19.92
			c0.04-0.2,0.13-0.36,0.29-0.5c0.15-0.13,0.32-0.19,0.52-0.19h1.41c0.2,0,0.35,0.06,0.46,0.19c0.11,0.13,0.15,0.3,0.11,0.5
			l-2.22,10.29l6.75-4.77c0.28-0.2,0.5-0.33,0.65-0.41s0.38-0.11,0.67-0.11h1.83c0.3,0,0.47,0.14,0.51,0.42
			c0.04,0.28-0.12,0.54-0.48,0.78l-8.16,5.88l6.15,7.47c0.2,0.22,0.24,0.45,0.12,0.69c-0.12,0.24-0.32,0.36-0.6,0.36h-1.5
			c-0.32,0-0.54-0.05-0.66-0.17s-0.23-0.21-0.33-0.29l-5.61-6.75l-1.38,6.51c-0.04,0.2-0.13,0.37-0.28,0.5
			c-0.15,0.13-0.33,0.2-0.53,0.2H198.46z"/>
		<path class="st2" d="M213.64,95.11c-0.2,0-0.36-0.07-0.48-0.21c-0.12-0.14-0.16-0.32-0.12-0.54l3-14.1
			c0.04-0.22,0.15-0.4,0.33-0.54c0.18-0.14,0.37-0.21,0.57-0.21h3c0.22,0,0.38,0.07,0.48,0.21c0.1,0.14,0.13,0.32,0.09,0.54l-3,14.1
			c-0.04,0.22-0.14,0.4-0.3,0.54c-0.16,0.14-0.35,0.21-0.57,0.21H213.64z M217.39,77.11c-0.22,0-0.39-0.07-0.5-0.21
			c-0.11-0.14-0.15-0.32-0.1-0.54l0.51-2.4c0.04-0.22,0.14-0.41,0.31-0.55c0.17-0.15,0.37-0.23,0.58-0.23h3.15
			c0.22,0,0.38,0.08,0.5,0.23c0.11,0.15,0.14,0.33,0.1,0.55l-0.54,2.4c-0.02,0.22-0.12,0.4-0.3,0.54c-0.18,0.14-0.37,0.21-0.57,0.21
			H217.39z"/>
		<path class="st2" d="M221.89,95.11c-0.2,0-0.36-0.07-0.48-0.21c-0.12-0.14-0.16-0.32-0.12-0.54l3-14.1
			c0.04-0.22,0.15-0.4,0.33-0.54c0.18-0.14,0.37-0.21,0.57-0.21h2.94c0.22,0,0.38,0.07,0.48,0.21c0.1,0.14,0.13,0.32,0.09,0.54
			l-0.24,1.17c0.62-0.64,1.36-1.17,2.23-1.59s1.86-0.63,2.96-0.63c1.32,0,2.38,0.27,3.2,0.79c0.81,0.53,1.36,1.3,1.65,2.31
			c0.29,1.01,0.28,2.23-0.02,3.67l-1.8,8.37c-0.04,0.22-0.15,0.4-0.32,0.54s-0.37,0.21-0.58,0.21h-3.18c-0.2,0-0.36-0.07-0.48-0.21
			c-0.12-0.14-0.16-0.32-0.12-0.54l1.74-8.19c0.24-1.12,0.21-1.96-0.07-2.52c-0.29-0.56-0.96-0.84-2-0.84
			c-1.02,0-1.89,0.29-2.6,0.88s-1.17,1.42-1.39,2.47l-1.74,8.19c-0.04,0.22-0.15,0.4-0.31,0.54c-0.17,0.14-0.36,0.21-0.56,0.21
			H221.89z"/>
	</g>
</g>
<g>
	<path class="st1" d="M23.75,23.73L39.28,50L63.93,7.55c2.67-4.6,7.6-7.44,12.92-7.44h0l-37.57,64.6L19.49,31.18
		C17.55,27.89,19.92,23.73,23.75,23.73L23.75,23.73z"/>
	<path class="st3" d="M5.08,23.73L20.61,50L45.26,7.55c2.67-4.6,7.6-7.44,12.92-7.44h0l-37.57,64.6L0.82,31.18
		C-1.12,27.89,1.25,23.73,5.08,23.73L5.08,23.73z"/>
</g>
</svg>
