<svg xmlns="http://www.w3.org/2000/svg" width="138.617" height="143.121" viewBox="0 0 138.617 143.121">
  <g id="Group_598" data-name="Group 598" transform="translate(-246.69 -392.879)">
    <g id="Group_565" data-name="Group 565" transform="translate(5.899 6)">
      <g id="Group_564" data-name="Group 564" transform="translate(249.16 395)">
        <path id="Path_52" data-name="Path 52" d="M651.982,399.409H593.1V314.7h65.345v79.2C658.445,396.944,655.555,399.409,651.982,399.409Z" transform="translate(-593.088 -314.7)" fill="#8cabef"/>
        <rect id="Rectangle_150" data-name="Rectangle 150" width="65.239" height="3.939" transform="translate(0 0)" fill="#4b839e"/>
        <g id="Group_563" data-name="Group 563" transform="translate(7.701 6.663)">
          <g id="Group_540" data-name="Group 540" transform="translate(7.768 38.928)">
            <g id="Group_539" data-name="Group 539">
              <path id="Path_53" data-name="Path 53" d="M757.588,702.291c.884,0,.884-.991,0-.991H724.838c-.884,0-.884.991,0,.991h32.749Z" transform="translate(-724.175 -701.3)" fill="#f7f7f7"/>
            </g>
          </g>
          <g id="Group_541" data-name="Group 541" transform="translate(6.293)">
            <path id="Path_54" data-name="Path 54" d="M759.326,371.2a17.328,17.328,0,0,0-13.125,5.991l13.125,11.368,13.126-11.368A17.328,17.328,0,0,0,759.326,371.2Z" transform="translate(-742.127 -371.2)" fill="#f7f7f7"/>
            <path id="Path_55" data-name="Path 55" d="M885.294,496.9,868.1,499.376v17.371a17.364,17.364,0,0,0,17.371-17.371A17.005,17.005,0,0,0,885.294,496.9Z" transform="translate(-849.652 -482.076)" fill="#5d66d3"/>
            <path id="Path_56" data-name="Path 56" d="M715.762,422.5a17.344,17.344,0,0,0,2.087,24.47,17.057,17.057,0,0,0,2,1.462l9.187-14.741Z" transform="translate(-711.666 -416.45)" fill="#eed5d5"/>
            <path id="Path_57" data-name="Path 57" d="M788.587,534.971a17.272,17.272,0,0,1-9.387-2.76l9.387-14.612Z" transform="translate(-771.236 -500.335)" fill="#d67086"/>
            <path id="Path_58" data-name="Path 58" d="M892.794,422.1a17.306,17.306,0,0,0-4.069-8.9L875.6,424.568Z" transform="translate(-856.267 -408.247)" fill="#3b3387"/>
          </g>
          <g id="Group_562" data-name="Group 562" transform="translate(0 44.259)">
            <g id="Group_542" data-name="Group 542" transform="translate(0 8.668)">
              <rect id="Rectangle_151" data-name="Rectangle 151" width="6.38" height="15.366" transform="translate(0 5.944)" fill="#7e50a4"/>
              <rect id="Rectangle_152" data-name="Rectangle 152" width="6.38" height="7.217" fill="#7e50a4"/>
            </g>
            <g id="Group_543" data-name="Group 543" transform="translate(42.006 2.335)">
              <rect id="Rectangle_153" data-name="Rectangle 153" width="6.38" height="15.366" transform="translate(0 12.972)" fill="#7e50a4"/>
              <rect id="Rectangle_154" data-name="Rectangle 154" width="6.427" height="14.246" transform="translate(0)" fill="#7e50a4"/>
            </g>
            <g id="Group_544" data-name="Group 544" transform="translate(27.996 12.654)">
              <rect id="Rectangle_155" data-name="Rectangle 155" width="6.38" height="16.239" transform="translate(0 1.439)" fill="#7e50a4"/>
              <rect id="Rectangle_156" data-name="Rectangle 156" width="6.38" height="10.779" fill="#7e50a4"/>
            </g>
            <g id="Group_545" data-name="Group 545" transform="translate(13.998)">
              <rect id="Rectangle_157" data-name="Rectangle 157" width="6.38" height="21.805" transform="translate(0 8.444)" fill="#7e50a4"/>
              <rect id="Rectangle_158" data-name="Rectangle 158" width="6.38" height="17.442" transform="translate(0)" fill="#7e50a4"/>
            </g>
          </g>
        </g>
        <g id="Group_549" data-name="Group 549" transform="translate(1.651 1.403)">
          <g id="Group_546" data-name="Group 546">
            <path id="Path_59" data-name="Path 59" d="M607.837,328.275a.837.837,0,1,1,.837-.837A.841.841,0,0,1,607.837,328.275Zm0-1.545a.7.7,0,1,0,.7.7A.69.69,0,0,0,607.837,326.73Z" transform="translate(-607 -326.6)" fill="#fff"/>
          </g>
          <g id="Group_547" data-name="Group 547" transform="translate(2.594)">
            <path id="Path_60" data-name="Path 60" d="M629.837,328.275a.837.837,0,1,1,.837-.837A.841.841,0,0,1,629.837,328.275Zm0-1.545a.7.7,0,1,0,0,1.392.7.7,0,1,0,0-1.392Z" transform="translate(-629 -326.6)" fill="#fff"/>
          </g>
          <g id="Group_548" data-name="Group 548" transform="translate(5.177)">
            <path id="Path_61" data-name="Path 61" d="M651.737,328.275a.837.837,0,1,1,.837-.837A.841.841,0,0,1,651.737,328.275Zm0-1.545a.7.7,0,1,0,.7.7A.7.7,0,0,0,651.737,326.73Z" transform="translate(-650.9 -326.6)" fill="#fff"/>
          </g>
        </g>
      </g>
      <g id="Group_561" data-name="Group 561" transform="translate(240.791 416.461)">
        <path id="Path_62" data-name="Path 62" d="M296.453,572.831H254.8V508.5h45.521v60.462A3.863,3.863,0,0,1,296.453,572.831Z" transform="translate(-249.635 -503.629)" fill="#2e4661" opacity="0.07"/>
        <g id="Group_550" data-name="Group 550" transform="translate(0 0)">
          <path id="Path_63" data-name="Path 63" d="M254.41,534.6H211V467.2h49.047v61.76A5.637,5.637,0,0,1,254.41,534.6Z" transform="translate(-211 -467.2)" fill="#4b839e"/>
        </g>
        <rect id="Rectangle_159" data-name="Rectangle 159" width="39.707" height="25.107" transform="translate(5.201 5.378)" fill="#fff"/>
        <path id="Path_64" data-name="Path 64" d="M304.946,538.015a1.653,1.653,0,0,0,.991.814,2.606,2.606,0,0,0,2.936-.743c.967-1.4.7-3.42,1.734-4.882a3.514,3.514,0,0,1,1.828-1.3,3.133,3.133,0,0,1,2.311.224,3.322,3.322,0,0,1,1.5,3,34.677,34.677,0,0,1-.684,6.6,5.714,5.714,0,0,1-1.238,2.948,7.391,7.391,0,0,1-4.328,1.84,50.9,50.9,0,0,1-12.418-.141c-3.326-.307-6.639-.625-9.965-.932-.932-.083-3.691.059-4.257-.59-.542-.637-.118-2.783.2-3.444a4.747,4.747,0,0,1,4.493-2.217c4.128.212,2.5-4.1,3.821-6.144a3.3,3.3,0,0,1,3.585-1.415c1.274.436,1.8,1.71,2.429,2.76a2.3,2.3,0,0,0,1.486,1.238c1.179.2,2.17-1,3.373-.955a2.006,2.006,0,0,1,1.627,1.073C304.769,536.517,304.628,537.354,304.946,538.015Z" transform="translate(-274.591 -523.922)" fill="#eed5d5"/>
        <path id="Path_65" data-name="Path 65" d="M308.972,569.854s.012-1.8.012-1.91c.012-2.7.012-5.389.012-8.09,0-2.583.212-5.154.177-7.724-.024-1.191-.531-1.816-1.781-1.486a5.837,5.837,0,0,0-3.137,2.052c-.531.684-.967,1.545-1.781,1.816-1.462.5-2.653-1.156-3.962-1.958a4.093,4.093,0,0,0-4.646.342c-1.533,1.3-1.887,3.538-3.184,5.071a5.235,5.235,0,0,1-6.026,1.321c-.826-.377-1.533-.979-2.335-1.38a6,6,0,0,0-8.22,4.269v7.359C274.088,569.524,309.043,569.913,308.972,569.854Z" transform="translate(-266.659 -540.726)" fill="#d67086"/>
        <rect id="Rectangle_160" data-name="Rectangle 160" width="2.984" height="2.984" transform="translate(5.849 34.317)" fill="#8cabef"/>
        <rect id="Rectangle_161" data-name="Rectangle 161" width="2.984" height="2.984" transform="translate(5.849 38.728)" fill="#5d66d3"/>
        <rect id="Rectangle_162" data-name="Rectangle 162" width="8.691" height="0.908" transform="translate(11.298 35.226)" fill="#f7f7f7"/>
        <rect id="Rectangle_163" data-name="Rectangle 163" width="8.691" height="0.908" transform="translate(11.168 40.025)" fill="#f7f7f7"/>
        <rect id="Rectangle_164" data-name="Rectangle 164" width="37.891" height="0.979" transform="translate(6.239 46.806)" fill="#f7f7f7"/>
        <rect id="Rectangle_165" data-name="Rectangle 165" width="16.864" height="13.444" transform="translate(6.239 49.66)" fill="#f7f7f7"/>
        <rect id="Rectangle_166" data-name="Rectangle 166" width="18.421" height="5.861" transform="translate(25.709 49.79)" fill="#f7f7f7"/>
        <rect id="Rectangle_167" data-name="Rectangle 167" width="18.421" height="5.861" transform="translate(25.508 57.184)" fill="#f7f7f7"/>
      </g>
    </g>
    <g id="Group_574" data-name="Group 574" transform="translate(0 -13)">
      <g id="Group_552" data-name="Group 552" transform="translate(323.638 452.068)">
        <g id="Group_551" data-name="Group 551">
          <path id="Path_68" data-name="Path 68" d="M1232.58,537.122l-5.209,8.344L1197.8,526.844l5.209-8.344Z" transform="translate(-1197.8 -518.5)" fill="#f7f7f7"/>
          <path id="Path_69" data-name="Path 69" d="M1327.49,600.02l-.062.094c-1.638,2.636-4.57,3.774-6.551,2.527L1298.2,588.729l5.958-10.029,22.74,14.333C1328.878,594.25,1329.143,597.385,1327.49,600.02Z" transform="translate(-1282.541 -569.311)" fill="#292949"/>
        </g>
        <path id="Path_70" data-name="Path 70" d="M1211.1,530.2l1.435,1.045,12.945-3.369L1214.687,521Z" transform="translate(-1209.026 -520.61)" fill="#bbbcbf" opacity="0.2"/>
      </g>
      <path id="Path_71" data-name="Path 71" d="M927.382,267.882a29.612,29.612,0,1,0,9.436,40.8A29.626,29.626,0,0,0,927.382,267.882Zm5.927,38.617a25.468,25.468,0,1,1-8.11-35.092A25.464,25.464,0,0,1,933.309,306.5Z" transform="translate(-607.69 148.892)" fill="#ff4c4c"/>
      <circle id="Ellipse_33" data-name="Ellipse 33" cx="25.469" cy="25.469" r="25.469" transform="translate(268 441.897) rotate(-45)" fill="#d1e7f5" opacity="0.5"/>
      <path id="Path_75" data-name="Path 75" d="M1324.327,562.837c.952-2.511,2.34-7.486,3.135-9.888-1.747-5.88-5.334-15.69-5.708-15.8-2.183-.624-4.118-1.2-6.285-1.84-.094-.031-.733,3.213-.842,3.2a4.911,4.911,0,0,1-.141-1.419h0l-.421-4.227a.8.8,0,0,0-.593-.749c-1.279-.327-4.024-.982-4.133-.78-.047.078-.281,3.743-.484,4.788l-.452-.234-.593-6.847s-4.757-1.2-4.85-.983c-.109.265-1.17,6.067-1.17,6.067s-1.84,13.85-2.043,14.832c-.312,1.435-1.263,2.729-1.123,4.164a13.842,13.842,0,0,0,1.56,4.554c1.684,3.525,3.353,7.065,5.037,10.59.359,2.4.749,7.876,1.294,10.247,6.208-1.248,12.431-2.2,19.34-4.4C1326.027,574.082,1323.922,563.928,1324.327,562.837Z" transform="translate(-959.249 -74.475)" fill="#eac5b0"/>
      <path id="Path_76" data-name="Path 76" d="M1330.52,791.873l-1.419-12.586,24.783-9.186,4.32,15.347-27.59,8.235Z" transform="translate(-984.984 -278.791)" fill="#f7f7f7"/>
      <path id="Path_77" data-name="Path 77" d="M1347.422,817.7s-25.5,14.567-30.772,15.955l-1.45,34.312h43.358Z" transform="translate(-973.251 -318.967)" fill="#b42025"/>
      <path id="Path_78" data-name="Path 78" d="M1347.767,852.169a1.413,1.413,0,1,1-1-1.731A1.412,1.412,0,0,1,1347.767,852.169Z" transform="translate(-998.395 -346.558)" fill="#292949"/>
    </g>
  </g>
</svg>
